<svg width="630" height="640" viewBox="0 0 630 640" fill="none" xmlns="http://www.w3.org/2000/svg">
<path d="M315 640C488.97 640 630 496.731 630 320C630 143.269 488.97 0 315 0C141.03 0 0 143.269 0 320C0 496.731 141.03 640 315 640Z" fill="black"/>
<path d="M315 617.931C476.061 617.931 606.627 484.543 606.627 320C606.627 155.457 476.061 22.069 315 22.069C153.939 22.069 23.373 155.457 23.373 320C23.373 484.543 153.939 617.931 315 617.931Z" fill="#FEFEFE"/>
<g filter="url(#filter0_di_82_2)">
<path d="M324.985 231.126C280.252 390.561 338.299 322.693 372.914 268.83L424.837 371.17L472.766 268.83L289.039 414.261L157.234 161.103H448.801L372.914 478.897" stroke="black" stroke-width="8" shape-rendering="crispEdges"/>
<path d="M324.985 231.126C280.252 390.561 338.299 322.693 372.914 268.83L424.837 371.17L472.766 268.83L289.039 414.261L157.234 161.103H448.801L372.914 478.897" stroke="white" stroke-opacity="0.2" stroke-width="8" shape-rendering="crispEdges"/>
</g>
<g filter="url(#filter1_d_82_2)">
<path d="M152.571 538.783L176.123 473.225C176.78 471.395 178.125 470.846 180.158 471.576C181.649 472.111 182.874 473.279 183.835 475.077L213.375 528.609L226.739 491.409C227.397 489.58 229.013 489.127 231.588 490.052C232.604 490.418 233.366 490.959 233.873 491.677C234.448 492.419 234.577 493.23 234.261 494.111L210.709 559.669C210.392 560.55 209.764 561.127 208.824 561.402C207.908 561.608 206.942 561.529 205.926 561.164C203.419 560.263 202.506 558.864 203.187 556.967L209.833 538.468L180.358 485.074L160.092 541.485C159.776 542.366 159.147 542.943 158.207 543.217C157.292 543.424 156.325 543.345 155.309 542.979C152.802 542.079 151.889 540.68 152.571 538.783Z" fill="black"/>
<path d="M232.922 540.786C233.785 534.654 236.131 529.604 239.962 525.635C243.874 521.604 248.251 518.912 253.095 517.558C258.011 516.213 262.999 515.897 268.061 516.61C275.191 517.613 281.369 521.245 286.596 527.507C291.904 533.707 293.981 540.906 292.827 549.105C291.734 556.877 288.122 563.167 281.992 567.976C275.872 572.713 268.499 574.475 259.872 573.261C251.388 572.068 244.501 568.299 239.214 561.957C233.936 555.543 231.839 548.486 232.922 540.786ZM240.821 542.006C240.109 547.068 241.774 552.029 245.816 556.887C249.869 561.675 254.961 564.5 261.093 565.362C266.868 566.175 272.083 564.764 276.739 561.129C281.466 557.504 284.191 553.125 284.913 547.992C285.615 543.001 284.312 538.055 281.002 533.154C277.693 528.253 272.937 525.366 266.734 524.494C259.462 523.47 253.482 524.883 248.796 528.732C244.182 532.59 241.523 537.015 240.821 542.006Z" fill="black"/>
<path d="M302.266 525.794C302.239 524.715 302.467 523.773 302.952 522.969C303.508 522.162 304.254 521.748 305.189 521.725L308.86 521.633L308.531 508.354C308.507 507.418 308.849 506.689 309.557 506.167C310.336 505.644 311.265 505.369 312.345 505.342C315.08 505.274 316.472 506.212 316.52 508.155L316.85 521.435L334.125 521.006C335.06 520.983 335.79 521.361 336.313 522.14C336.835 522.848 337.109 523.741 337.136 524.821C337.204 527.556 336.266 528.948 334.323 528.996L317.048 529.425L317.689 555.229C317.889 563.29 321.048 567.245 327.166 567.093C329.757 567.029 331.971 566.254 333.807 564.768C335.714 563.28 336.623 560.736 336.534 557.138C336.509 556.13 336.884 555.292 337.66 554.625C338.508 553.956 339.507 553.607 340.659 553.578C341.739 553.551 342.646 553.853 343.382 554.483C344.116 555.041 344.498 555.896 344.526 557.047C344.595 562.735 342.976 567.133 339.668 570.24C336.432 573.345 332.331 574.959 327.365 575.083C315.92 575.367 310.008 567.843 309.627 552.512L309.059 529.623L305.388 529.714C303.372 529.764 302.332 528.458 302.266 525.794Z" fill="black"/>
<path d="M353.449 545.887C352.605 541.357 352.845 537.138 354.167 533.23C355.49 529.321 357.588 526.038 360.461 523.378C363.335 520.719 366.555 518.544 370.122 516.854C373.675 515.094 377.399 513.851 381.292 513.125C388.228 511.833 393.891 512.353 398.281 514.684C402.657 516.945 405.254 520.269 406.071 524.658C406.955 529.4 405.477 533.85 401.637 538.008C397.798 542.165 391.773 545.009 383.562 546.539C376.201 547.91 368.996 548.154 361.947 547.27C363.701 552.363 366.961 556.297 371.725 559.071C376.49 561.845 381.881 562.672 387.897 561.551C391.082 560.957 394.281 559.849 397.494 558.225C400.778 556.587 403.239 554.664 404.878 552.454C405.056 551.835 405.57 551.447 406.419 551.289C407.41 551.104 408.557 551.366 409.861 552.075C411.152 552.714 411.883 553.493 412.055 554.413C410.958 558.353 407.984 561.653 403.133 564.315C398.34 566.892 393.537 568.629 388.724 569.526C380.018 571.148 372.335 569.614 365.675 564.922C359.015 560.231 354.94 553.886 353.449 545.887ZM360.848 539.016C366.592 540.363 373.392 540.304 381.249 538.84C387.407 537.693 391.901 535.867 394.73 533.362C397.546 530.787 398.729 528.296 398.281 525.889C397.885 523.766 396.211 522.247 393.257 521.333C390.361 520.334 386.295 520.323 381.057 521.299C375.394 522.354 370.889 524.511 367.542 527.772C364.252 530.948 362.021 534.696 360.848 539.016Z" fill="black"/>
<path d="M425.844 549.604C425.511 548.729 425.521 547.646 425.876 546.355C426.298 545.038 426.963 544.052 427.869 543.398C428.34 543.219 428.601 543.196 428.652 543.331C431.703 544.864 435.504 545.533 440.053 545.339C444.577 545.077 448.021 544.61 450.385 543.939C452.817 543.243 455.041 542.51 457.06 541.74C465.805 538.403 469.163 534.078 467.136 528.763C466.443 526.947 465.218 525.757 463.462 525.194C461.748 524.538 459.67 524.445 457.229 524.914C454.855 525.357 452.499 525.948 450.16 526.686C447.822 527.424 445.294 528.273 442.578 529.233C439.835 530.125 437.707 530.706 436.191 530.976C432.075 531.699 428.087 531.448 424.229 530.222C420.345 528.93 417.787 526.669 416.555 523.44C414.605 518.328 415.672 513.451 419.758 508.809C423.886 504.075 429.044 500.527 435.233 498.166C439.403 496.575 444.159 495.608 449.5 495.265C454.815 494.856 459.227 495.715 462.737 497.844C462.855 497.953 462.953 498.108 463.03 498.31C463.364 499.185 463.358 500.381 463.013 501.9C462.642 503.352 462.086 504.219 461.347 504.501C460.674 504.758 459.796 504.476 458.712 503.657C454.174 501.458 447.096 502.194 437.476 505.864C433.507 507.378 429.997 509.488 426.945 512.194C423.893 514.9 422.867 517.564 423.868 520.188C424.715 522.408 426.904 523.499 430.435 523.462C433.94 523.358 437.441 522.638 440.94 521.304C443.429 520.354 445.527 519.592 447.234 519.018C448.942 518.443 451.07 517.862 453.62 517.274C456.145 516.62 458.355 516.354 460.252 516.478C462.123 516.535 464.051 516.84 466.034 517.393C467.992 517.879 469.7 518.923 471.159 520.524C472.659 522.032 473.884 524.031 474.834 526.52C476.143 529.951 476.17 533.254 474.916 536.43C473.703 539.512 471.884 542.017 469.46 543.944C467.129 545.913 464.449 547.474 461.422 548.629C447.228 554.045 435.848 554.919 427.282 551.252C426.631 550.96 426.152 550.411 425.844 549.604Z" fill="black"/>
</g>
<defs>
<filter id="filter0_di_82_2" x="146.642" y="157.103" width="333.747" height="330.723" filterUnits="userSpaceOnUse" color-interpolation-filters="sRGB">
<feFlood flood-opacity="0" result="BackgroundImageFix"/>
<feColorMatrix in="SourceAlpha" type="matrix" values="0 0 0 0 0 0 0 0 0 0 0 0 0 0 0 0 0 0 127 0" result="hardAlpha"/>
<feOffset dy="4"/>
<feGaussianBlur stdDeviation="2"/>
<feComposite in2="hardAlpha" operator="out"/>
<feColorMatrix type="matrix" values="0 0 0 0 0 0 0 0 0 0 0 0 0 0 0 0 0 0 0.25 0"/>
<feBlend mode="normal" in2="BackgroundImageFix" result="effect1_dropShadow_82_2"/>
<feBlend mode="normal" in="SourceGraphic" in2="effect1_dropShadow_82_2" result="shape"/>
<feColorMatrix in="SourceAlpha" type="matrix" values="0 0 0 0 0 0 0 0 0 0 0 0 0 0 0 0 0 0 127 0" result="hardAlpha"/>
<feOffset dy="4"/>
<feGaussianBlur stdDeviation="2"/>
<feComposite in2="hardAlpha" operator="arithmetic" k2="-1" k3="1"/>
<feColorMatrix type="matrix" values="0 0 0 0 0 0 0 0 0 0 0 0 0 0 0 0 0 0 0.52 0"/>
<feBlend mode="normal" in2="shape" result="effect2_innerShadow_82_2"/>
</filter>
<filter id="filter1_d_82_2" x="147.548" y="470.48" width="336.945" height="114.859" filterUnits="userSpaceOnUse" color-interpolation-filters="sRGB">
<feFlood flood-opacity="0" result="BackgroundImageFix"/>
<feColorMatrix in="SourceAlpha" type="matrix" values="0 0 0 0 0 0 0 0 0 0 0 0 0 0 0 0 0 0 127 0" result="hardAlpha"/>
<feOffset dy="4"/>
<feGaussianBlur stdDeviation="2"/>
<feComposite in2="hardAlpha" operator="out"/>
<feColorMatrix type="matrix" values="0 0 0 0 0 0 0 0 0 0 0 0 0 0 0 0 0 0 0.25 0"/>
<feBlend mode="normal" in2="BackgroundImageFix" result="effect1_dropShadow_82_2"/>
<feBlend mode="normal" in="SourceGraphic" in2="effect1_dropShadow_82_2" result="shape"/>
</filter>
</defs>
</svg>
